<?xml version="1.0" encoding="utf-8"?>
<svg version="1.2" baseProfile="tiny" id="Layer_1" xmlns="http://www.w3.org/2000/svg" xmlns:xlink="http://www.w3.org/1999/xlink"
	 x="0px" y="0px" width="42.833px" height="43.667px" viewBox="0 0 42.833 43.667" xml:space="preserve">
<g>
	<path fill-rule="evenodd" d="M26.213,19.75c-3.198-0.59-4.314,18.177-1.005,19.522C29.765,41.126,31.501,20.725,26.213,19.75z"/>
	<path fill-rule="evenodd" d="M30.269,2.5c-0.395-1.25-1.686-1.125-2.25,0c-3.139,9.479,6.397,5.196,9.001,9.001
		c1.66,2.425,0.066,3.49-1.5,3.75c-1.42,0.235-5.171-4.741-8.251-5.251c-8.566-1.417-10.246,4.757-13.502,6.751
		c2.903-3.477,4.32-13.805,0-10.501C9.208,9.736,3.095,5.605,1.765,4.75c0,2.75-0.783,5.25,0,8.251
		c0.311,3.6,5.353,4.849,6.001,6.751c1.77,5.188-3.217,21.866,3.001,21.003c4.369-0.606,0.585-16.802,3.75-15.752
		c3.997,1.325-3.418,16.747,3.751,15.752c4.189-0.582-0.719-26.64,10.501-18.002c1.651,1.271,0.228,19.398,4.501,18.002
		c4.544-1.484-0.792-15.826,1.5-21.003c1.59-3.59,4.782-2.481,6.001-4.5c0.688-1.825,0.852-3.2,0-5.251
		C39.125,5.646,29.785,8.985,30.269,2.5z"/>
</g>
</svg>
