<?xml version="1.0" encoding="utf-8"?>
<!DOCTYPE svg PUBLIC "-//W3C//DTD SVG 1.1//EN" "http://www.w3.org/Graphics/SVG/1.1/DTD/svg11.dtd">
<svg version="1.1" id="Layer_1" xmlns="http://www.w3.org/2000/svg" xmlns:xlink="http://www.w3.org/1999/xlink" x="0px" y="0px"
	 width="33.417px" height="33.333px" viewBox="-0.667 -0.75 33.417 33.333" enable-background="new -0.667 -0.75 33.417 33.333"
	 xml:space="preserve">
<g>
	<circle fill="#F7931A" stroke="#000000" stroke-width="0.75" stroke-miterlimit="10" cx="16" cy="16" r="16"/>
	<path fill="#FFFFFF" d="M23.189,14.02c0.313-2.096-1.283-3.223-3.465-3.975l0.707-2.84l-1.728-0.43l-0.69,2.765
		c-0.453-0.114-0.92-0.22-1.385-0.326l0.695-2.783L15.596,6l-0.708,2.839c-0.376-0.086-0.746-0.17-1.104-0.26l0.002-0.009
		l-2.384-0.595l-0.46,1.846c0,0,1.283,0.294,1.256,0.312c0.7,0.175,0.826,0.638,0.805,1.006l-0.806,3.235
		c0.048,0.012,0.11,0.03,0.18,0.057l-0.183-0.045l-1.13,4.532c-0.086,0.212-0.303,0.531-0.793,0.41
		c0.018,0.025-1.256-0.313-1.256-0.313l-0.858,1.978l2.25,0.562c0.418,0.104,0.828,0.215,1.231,0.317l-0.715,2.872l1.727,0.43
		l0.708-2.84c0.472,0.127,0.93,0.245,1.378,0.357L14.03,25.52l1.728,0.43l0.715-2.866c2.948,0.558,5.164,0.333,6.097-2.333
		c0.752-2.146-0.037-3.385-1.588-4.191C22.111,16.298,22.962,15.555,23.189,14.02z M19.239,19.559
		c-0.533,2.146-4.148,0.985-5.32,0.694l0.95-3.805C16.041,16.741,19.798,17.32,19.239,19.559z M19.773,13.989
		c-0.486,1.953-3.495,0.96-4.469,0.717l0.86-3.45C17.139,11.499,20.282,11.952,19.773,13.989z"/>
</g>
</svg>
