<?xml version="1.0" encoding="utf-8"?>
<svg version="1.2" baseProfile="tiny" id="Layer_1" xmlns="http://www.w3.org/2000/svg" xmlns:xlink="http://www.w3.org/1999/xlink"
	 x="0px" y="0px" viewBox="0 0 256.3 238.9" xml:space="preserve">
<g>
	<g id="XMLID_1_">
		<g>
			<path d="M205.5,192.9c7.9,4.2,12.1,10.5,11.2,19.9c-0.9,9.8-5.5,17.4-15,20.2c-5.7,1.7-8.7,3.4-18,2.5c-12.4-2-25.1-4.1-37.7-6.1
				c-13-2.1-25.8-1.1-38.5,2.6c-9.4,2.7-19.1,4.8-28.8,5.7c-13.6,1.3-23.4-4.7-28.1-15.5c-4.7-10.7-2.1-22.7,7.3-31.9
				c5.5-5.3,12-9.7,17.3-15.1c7.8-7.9,15-16.5,22.5-24.7c3.8-4.2,7.5-8.5,11.8-12.2c11.5-9.9,28.9-9.2,39.3,1.8
				c3.9,4.1,7,8.8,10.3,13.4c3.8,5.3,7.3,10.8,11,16.1c4.5,6.6,10.6,11.3,17.8,14.7C193.9,187.1,199.8,189.8,205.5,192.9z"/>
			<path d="M254.3,113.6c0.7,4,0.7,8.1-0.1,12c-3.2,17-10.8,30.7-23.8,41.4c-8.2,6.8-17.7,8.6-27.4,3.2c-9.8-5.4-13.3-14.6-12.2-25
				c2.4-21.6,13.2-39,30.2-52.1c12.6-9.7,25.6-5.2,30.9,9.8C253.1,106.5,253.7,110.2,254.3,113.6z"/>
			<path d="M113.5,44.7c0.1,1.7,0,3.4-0.3,5.1c-1.5,9-2.8,18.1-5,27c-1,4.4-3.4,8.7-6.1,12.4c-7.4,9.9-19.7,11.1-28.8,2.8
				C58.5,78.7,45.7,46.5,61.9,20.8c3-4.8,7.5-9.1,12.2-12c10.6-6.5,21.5-4,29.2,5.8C110.4,23.4,113,33.6,113.5,44.7z"/>
			<path d="M46.5,93.3c10.9,8.1,16,19.2,16,32.3c-0.5,12.6-3,24.2-9.6,34.6C42,177,24.9,177.7,12.5,162.1
				c-16.1-20.3-11.9-52.8,8.8-68.4C29.9,87.2,37.8,86.9,46.5,93.3z"/>
			<path d="M141.3,46.3c-0.1-0.8-0.1-1.6-0.1-2.5c0.6-14,5.4-25.8,16.1-34.8c13.9-11.6,30.4-9.1,40.3,6.1
				c8.3,12.6,8.6,26.6,6.4,40.9c-1.5,9.8-4.6,19.1-10.4,27.3c-4.7,6.7-10.7,11.7-19,13.6c-8.4,1.8-15.1-0.8-20.3-7.4
				c-7.6-9.6-10.1-21.2-11.9-32.9C141.8,53.1,141.6,49.5,141.3,46.3z"/>
		</g>
		<g>
			<path fill="none" stroke="#FFFFFF" stroke-miterlimit="10" d="M183.6,235.5c9.3,0.9,12.4-0.9,18-2.5c9.5-2.8,14.1-10.4,15-20.2
				c0.9-9.4-3.3-15.7-11.2-19.9c-5.7-3.1-11.6-5.8-17.5-8.6c-7.2-3.4-13.3-8.1-17.8-14.7c-3.7-5.4-7.2-10.8-11-16.1
				c-3.3-4.6-6.4-9.3-10.3-13.4c-10.4-11-27.9-11.8-39.3-1.8c-4.3,3.7-8,8.1-11.8,12.2c-7.5,8.2-14.7,16.8-22.5,24.7
				c-5.4,5.4-11.8,9.8-17.3,15.1c-9.5,9.2-12,21.1-7.3,31.9c4.7,10.8,14.4,16.8,28.1,15.5c9.7-0.9,19.4-3,28.8-5.7
				c12.8-3.6,25.5-4.7,38.5-2.6C158.6,231.5,171.2,233.5,183.6,235.5z"/>
			<path fill="none" stroke="#FFFFFF" stroke-miterlimit="10" d="M141.2,43.8c0,0.8,0,1.6,0.1,2.5c0.3,3.3,0.5,6.8,1.1,10.3
				c1.9,11.7,4.4,23.3,11.9,32.9c5.2,6.6,11.9,9.2,20.3,7.4c8.3-1.8,14.3-6.8,19-13.6c5.8-8.2,8.8-17.5,10.4-27.3
				c2.3-14.3,1.9-28.3-6.4-40.9C187.7,0,171.2-2.6,157.3,9C146.5,18,141.8,29.8,141.2,43.8z"/>
			<path fill="none" stroke="#FFFFFF" stroke-miterlimit="10" d="M113.2,49.9c0.3-1.7,0.4-3.4,0.3-5.1c-0.5-11.1-3.1-21.3-10.1-30.2
				C95.6,4.8,84.8,2.2,74.1,8.7c-4.8,2.9-9.3,7.3-12.2,12C45.7,46.5,58.5,78.7,73.3,92c9.1,8.3,21.4,7.1,28.8-2.8
				c2.7-3.7,5.1-8,6.1-12.4C110.3,67.9,111.6,58.9,113.2,49.9z"/>
			<path fill="none" stroke="#FFFFFF" stroke-miterlimit="10" d="M62.4,125.7c0-13.1-5.1-24.2-16-32.3c-8.6-6.5-16.6-6.2-25.2,0.3
				c-20.7,15.6-24.8,48.2-8.8,68.4c12.4,15.6,29.5,14.9,40.3-1.8C59.5,149.9,61.9,138.3,62.4,125.7z"/>
		</g>
	</g>
</g>
</svg>
