<?xml version="1.0" encoding="utf-8"?>
<svg version="1.2" baseProfile="tiny" id="Layer_1" xmlns="http://www.w3.org/2000/svg" xmlns:xlink="http://www.w3.org/1999/xlink"
	 x="0px" y="0px" viewBox="0 0 189.8 118.8" xml:space="preserve">
<path d="M2.1,58.3c1-2.3,2.5-2.9,5.1-2.6c10.7,1.3,21.3,2.3,32,3.5c1.7,0.2,1.8,0.1,1.6-1.7c-0.9-11.1-0.6-22.3,0.5-33.4
	C41.9,19,42.5,14,44.5,9.2c1.9-4.6,5.2-5.2,8.6-1.5c3.2,3.5,5.4,7.6,7.4,11.9c2.1,4.7,4.1,9.5,6.2,14.4c9-5.5,18.6-8.9,29.2-8.9
	c10.7,0,20.1,3.8,28.5,10.9c0.4-1.9,0.7-3.6,1.1-5.2c1.7-7.6,3.5-15.2,7.2-22.1c0.9-1.7,2.4-3.3,3.8-4.6c1.3-1.2,2.4-1,3.6,0.4
	c1,1.2,1.8,2.5,2.4,3.9c3.3,7.9,5.2,16.3,6.4,24.7c1.2,7.7,1.8,15.5,1.8,23.3c0,0.5,0,1,0.1,1.5c5.4-1.5,10.7-3,16-4.5
	c5.5-1.6,10.9-3.3,16.3-4.9c2.6-0.8,4-0.1,5,2.5c0.1,0.3,0.3,0.5,0.4,0.8c0,0.8-0.1,1.6-0.1,2.4c-0.7,1.9-2.1,2.9-4,3.5
	c-11,3.1-21.9,6.3-32.9,9.6c-0.6,0.2-1.4,0.6-1.5,1.1c-0.5,2.1-0.8,4.3-1.1,6.5c0.5,0.1,0.9,0.3,1.4,0.4c4.7,0.6,9.3,1.2,14,1.7
	c6,0.7,12,1.4,18,2c1.9,0.2,3.1,1.3,3.5,3.1c0.2,0.9,0.2,2,0.1,2.9c-0.2,2.2-1.6,3.3-3.8,3.1c-6.3-0.7-12.7-1.4-19-2.1
	c-5.5-0.6-11-1.3-16.6-2c-1,2.3-2.1,4.7-3.2,7.2c3,1.5,5.9,3.1,8.8,4.6c7.8,3.8,15.8,6.9,24.2,9.3c2.4,0.7,3.3,2.8,2.5,5.5
	c-0.7,2.7-2.6,4-4.9,3.2c-6.1-2.1-12.2-4.1-18.1-6.6c-5.4-2.3-10.6-5.1-15.8-7.9c-1.5-0.8-2.3-0.5-3.3,0.6c-4.5,4.6-10,7.5-16.4,8.6
	c-4.8,0.8-9.6,1.3-14.4,1.8c-8,0.8-15.9,0.8-23.8-0.6c-9.1-1.5-17.4-4.7-24.3-11.1c-0.8-0.8-1.5-0.8-2.5-0.3
	c-3.9,1.9-7.8,3.9-11.8,5.5c-7.6,3.1-15.3,6-22.9,8.9c-1.2,0.5-2.3,0.2-3.3-0.8c-2.4-2.6-1.3-7.2,2-8.3c9.4-3.1,18.4-6.8,27.4-11
	c1.4-0.7,2.8-1.4,4.1-2.1c-1-1.9-2-3.5-2.9-5.1c-0.4-0.7-0.9-1-1.8-0.8c-7.2,1.1-14.4,2.2-21.6,3.2c-5.8,0.8-11.7,1.6-17.5,2.3
	c-1.8,0.2-2.7-0.3-3.4-2c-1.4-3.2,0.8-6.8,4.4-7.3c9.3-1.3,18.5-2.6,27.8-3.9c2.7-0.4,5.3-0.8,8.2-1.3c-0.6-2.4-1-4.6-1.6-6.7
	c-0.1-0.2-0.6-0.4-1-0.4C30.2,67.3,19,66.1,7.8,65.1C5,64.8,2.9,63.9,2,61C2.1,60.1,2.1,59.2,2.1,58.3z"/>
</svg>
