<?xml version="1.0" encoding="utf-8"?>
<!-- Generator: Adobe Illustrator 15.1.0, SVG Export Plug-In . SVG Version: 6.00 Build 0)  -->
<svg version="1.2" baseProfile="tiny" id="Layer_1" xmlns="http://www.w3.org/2000/svg" xmlns:xlink="http://www.w3.org/1999/xlink"
	 x="0px" y="0px" width="28.694px" height="31.307px" viewBox="0 0 28.694 31.307" xml:space="preserve">
<g>
	<path fill-rule="evenodd" d="M9.793,0.577c-1.04,1.96-3.346,0.5-5.721,3.75c-0.563,0.781-2.075,3.476-1.03,6.752
		c3.56-1.191,3.878-5.087,9.848-3.867c2.373-0.189,0.277-3.674,1.317-4.135c2.532-0.75,0.917,3.189,6.837,4.251
		c3.781,0.683,4.902-4.116,7.502-2.25c0.561,7.563-0.18,13.823-7.502,13.502c-0.486,3.764,0.982,9.484-0.75,12.002
		c-3.291-0.961-0.572-7.811-1.42-11.213c-0.799-2.452-3.093-2.948-4.125-5.167c-0.531-1.5-0.456-3.123-0.456-4.624
		c-4.932-0.681-7.404,1.097-9.001,3.75c-0.137,2.617,0.092,6.441,0.092,9.716c0,2.969,1.156,7.598-2.343,7.537
		c-1.223-3.926-1.223-12.578,0-16.503C-3.256,9.619,1.989-2.808,9.793,0.577z M18.045,15.579c4.795,2.179,10.146-1.432,8.893-7.626
		C24,10.515,18.293,10.558,16.545,8.078C16.234,11.388,16.748,13.875,18.045,15.579z"/>
	<path fill-rule="evenodd" d="M15.128,20.518c0.729,2.301,1.604,8.359,0,10.502c-3.764-0.737,0.791-9.793-3.75-9.752
		c-0.607,0.143-1.065,0.294-1.563,0.672c-1.877,1.731,0.769,7.786-1.438,9.08c-3.237-0.514-0.69-6.811-1.5-9.752
		C9.115,18.764,12.062,18.884,15.128,20.518z"/>
</g>
</svg>
